<?xml version="1.0" encoding="UTF-8"?>
<svg width="16px" height="16px" viewBox="0 0 16 16" version="1.1" xmlns="http://www.w3.org/2000/svg" xmlns:xlink="http://www.w3.org/1999/xlink">
    <!-- Generator: Sketch 43.2 (39069) - http://www.bohemiancoding.com/sketch -->
    <title>icon-arrow-start-hover</title>
    <desc>Created with Sketch.</desc>
    <defs></defs>
    <g id="Layout" stroke="none" stroke-width="1" fill="none" fill-rule="evenodd">
        <g id="icon-arrow-start-hover" fill="#FFFFFF">
            <path d="M11.6092168,3.0191134 C11.2689033,2.67879984 10.7163323,2.67879984 10.3760187,3.0191134 C10.0357051,3.35942696 10.0357051,3.91258268 10.3760187,4.25289625 L13.2517268,7.12860432 L1.09984285,7.12860432 C0.618024339,7.12860432 0.227423894,7.51920477 0.227423894,8.00102328 C0.227423894,8.48284179 0.618024339,8.87344224 1.09984285,8.87344224 L13.2493879,8.87344224 L10.3736798,11.7468114 C10.0333662,12.0871249 10.0333662,12.6402807 10.3736798,12.9805942 C10.545006,13.1519205 10.7666192,13.2361218 10.9899865,13.2361218 C11.2139385,13.2361218 11.4355517,13.1519205 11.6068779,12.9805942 L15.9718964,8.61557578 C16.1362058,8.45126631 16.2274239,8.23199211 16.2274239,7.99868435 C16.2274239,7.76830026 16.1362058,7.54668713 15.9718964,7.38179293 L11.6092168,3.0191134 Z" id="Fill-1" transform="translate(8.227424, 8.000000) rotate(90.000000) translate(-8.227424, -8.000000) "></path>
        </g>
    </g>
</svg>