<?xml version="1.0" encoding="UTF-8"?>
<svg width="16px" height="16px" viewBox="0 0 16 16" version="1.1" xmlns="http://www.w3.org/2000/svg" xmlns:xlink="http://www.w3.org/1999/xlink">
    <!-- Generator: Sketch 43.2 (39069) - http://www.bohemiancoding.com/sketch -->
    <title>icon-arrow-next</title>
    <desc>Created with Sketch.</desc>
    <defs></defs>
    <g id="Layout" stroke="none" stroke-width="1" fill="none" fill-rule="evenodd">
        <g id="icon-arrow-next" fill="#000000">
            <g id="Page-1" transform="translate(0.000000, 2.500000)">
                <path d="M11.3817929,0.291689508 C11.0414794,-0.0486240544 10.4889084,-0.0486240544 10.1485948,0.291689508 C9.80828126,0.63200307 9.80828126,1.18515879 10.1485948,1.52547235 L13.0243029,4.40118043 L0.87241896,4.40118043 C0.390600446,4.40118043 0,4.79178087 0,5.27359939 C0,5.7554179 0.390600446,6.14601835 0.87241896,6.14601835 L13.021964,6.14601835 L10.1462559,9.01938749 C9.80594233,9.35970106 9.80594233,9.91285678 10.1462559,10.2531703 C10.3175821,10.4244966 10.5391953,10.5086979 10.7625626,10.5086979 C10.9865146,10.5086979 11.2081278,10.4244966 11.379454,10.2531703 L15.7444725,5.88815188 C15.9087819,5.72384241 16,5.50456821 16,5.27126046 C16,5.04087637 15.9087819,4.81926324 15.7444725,4.65436904 L11.3817929,0.291689508 Z" id="Fill-1"></path>
            </g>
        </g>
    </g>
</svg>