<?xml version="1.0" encoding="UTF-8"?>
<svg width="16px" height="16px" viewBox="0 0 16 16" version="1.1" xmlns="http://www.w3.org/2000/svg" xmlns:xlink="http://www.w3.org/1999/xlink">
    <!-- Generator: Sketch 43.2 (39069) - http://www.bohemiancoding.com/sketch -->
    <title>icon-arrow-next-hover</title>
    <desc>Created with Sketch.</desc>
    <defs></defs>
    <g id="Layout" stroke="none" stroke-width="1" fill="none" fill-rule="evenodd">
        <g id="icon-arrow-next-hover" fill="#FFFFFF">
            <path d="M11.3817929,2.79168951 C11.0414794,2.45137595 10.4889084,2.45137595 10.1485948,2.79168951 C9.80828126,3.13200307 9.80828126,3.68515879 10.1485948,4.02547235 L13.0243029,6.90118043 L0.87241896,6.90118043 C0.390600446,6.90118043 0,7.29178087 0,7.77359939 C0,8.2554179 0.390600446,8.64601835 0.87241896,8.64601835 L13.021964,8.64601835 L10.1462559,11.5193875 C9.80594233,11.8597011 9.80594233,12.4128568 10.1462559,12.7531703 C10.3175821,12.9244966 10.5391953,13.0086979 10.7625626,13.0086979 C10.9865146,13.0086979 11.2081278,12.9244966 11.379454,12.7531703 L15.7444725,8.38815188 C15.9087819,8.22384241 16,8.00456821 16,7.77126046 C16,7.54087637 15.9087819,7.31926324 15.7444725,7.15436904 L11.3817929,2.79168951 Z" id="Fill-1"></path>
        </g>
    </g>
</svg>