<?xml version="1.0" encoding="UTF-8"?>
<svg width="16px" height="16px" viewBox="0 0 16 16" version="1.1" xmlns="http://www.w3.org/2000/svg" xmlns:xlink="http://www.w3.org/1999/xlink">
    <!-- Generator: Sketch 43.2 (39069) - http://www.bohemiancoding.com/sketch -->
    <title>icon-arrow-start copy</title>
    <desc>Created with Sketch.</desc>
    <defs></defs>
    <g id="Layout" stroke="none" stroke-width="1" fill="none" fill-rule="evenodd">
        <g id="icon-arrow-start-copy" fill="#000000">
            <path d="M13.1573333,1.6 L7.31253333,7.4448 C6.96986667,7.78746667 6.9688,8.34586667 7.31253333,8.6896 C7.65626667,9.03226667 8.2136,9.03333333 8.55733333,8.6896 L14.4,2.84693333 L14.4,4.80106667 C14.4,5.2416 14.7584,5.6 15.2,5.6 C15.6405333,5.6 16,5.2416 16,4.80106667 L16,0.798933333 C16,0.5792 15.9104,0.3792 15.7656,0.2344 C15.6208,0.0896 15.4208,7.10542736e-15 15.2010667,7.10542736e-15 L11.1989333,7.10542736e-15 C10.7584,7.10542736e-15 10.4,0.3584 10.4,0.8 C10.4,1.24053333 10.7584,1.6 11.1989333,1.6 L13.1573333,1.6 Z M16,9.6 L16,5.7968 L16,14.0061333 C16,15.1072 15.2061333,16 14.2272,16 L1.7728,16 C0.793866667,16 0,15.1053333 0,14.0061333 L0,1.99386667 C0,0.8928 0.793866667,7.99360578e-15 1.7728,7.99360578e-15 L10.3136,7.99360578e-15 L6.4,7.99360578e-15 C6.8416,7.99360578e-15 7.2,0.3584 7.2,0.8 C7.2,1.2416 6.8416,1.6 6.4,1.6 L2.0552,1.6 C1.80106667,1.6 1.6,1.83866667 1.6,2.13333333 L1.6,13.8666667 C1.6,14.1562667 1.80426667,14.4 2.0552,14.4 L13.9448,14.4 C14.1989333,14.4 14.4,14.1613333 14.4,13.8666667 L14.4,9.6 C14.4,9.1584 14.7584,8.8 15.2,8.8 C15.6416,8.8 16,9.1584 16,9.6 Z" id="Page-1"></path>
        </g>
    </g>
</svg>